<svg width="91" height="28" viewBox="0 0 91 28" fill="none" xmlns="http://www.w3.org/2000/svg">
<path d="M15.2224 -1.19209e-07L12.1724 3H3.72235V12.5L5.77235 10.5H14.7224L11.6724 13.5H3.72235V28H0.222351V3.5C0.222351 2.53333 0.555685 1.71666 1.22235 1.05C1.92235 0.349999 2.75568 -1.19209e-07 3.72235 -1.19209e-07H15.2224ZM31.5761 17.5H28.0761V13.5H21.0761V28H17.5761V10.5H21.0761V13L23.5761 10.5H28.0761C29.0427 10.5 29.8594 10.85 30.5261 11.55C31.2261 12.2167 31.5761 13.0333 31.5761 14V17.5ZM54.1505 24.5C54.1505 25.4667 53.8005 26.3 53.1005 27C52.4338 27.6667 51.6172 28 50.6505 28H40.1505C39.1838 28 38.3505 27.6667 37.6505 27C36.9838 26.3 36.6505 25.4667 36.6505 24.5V14C36.6505 13.0333 36.9838 12.2167 37.6505 11.55C38.3505 10.85 39.1838 10.5 40.1505 10.5H50.6505C51.6172 10.5 52.4338 10.85 53.1005 11.55C53.8005 12.2167 54.1505 13.0333 54.1505 14V24.5ZM50.6505 25V13.5H40.1505V25H50.6505ZM90.2542 28H86.7542V13.5H77.2542V28H73.7542V13.5H64.2542V28H60.7542V10.5H64.2542V13L66.7542 10.5H73.7542C75.7875 10.5 76.9375 11.35 77.2042 13.05L79.7542 10.5H86.7542C87.7209 10.5 88.5375 10.85 89.2042 11.55C89.9042 12.2167 90.2542 13.0333 90.2542 14V28Z" fill="#6F6F70" fill-opacity="0.58"/>
</svg>
