<svg width="221" height="72" viewBox="0 0 221 72" fill="none" xmlns="http://www.w3.org/2000/svg">
<g filter="url(#filter0_b_193_2786)">
<path d="M18.915 30.2188C22.9697 26 25.8994 21.3828 27.7041 16.3672C28.3838 14.4922 28.8291 12.6992 29.04 10.9883C28.5244 10.2383 27.7041 9.875 26.5791 9.89844C25.4775 9.89844 24.6806 10.1445 24.1884 10.6367C23.8603 11.8555 23.1455 14.6328 22.0439 18.9688C20.9423 23.2812 19.8994 27.0312 18.915 30.2188ZM23.415 3.60547L24.7509 3.42969C25.4541 3.42969 25.8525 3.64062 25.9463 4.0625C25.9697 4.17969 25.8877 4.63672 25.7002 5.43359C25.5127 6.20703 25.4189 6.71094 25.4189 6.94531C25.7002 6.89844 26.1103 6.875 26.6494 6.875C29.0166 6.875 30.6572 7.48437 31.5713 8.70312C31.9697 9.26562 32.1689 9.91016 32.1689 10.6367C32.1689 13.918 30.9853 17.7852 28.6181 22.2383C26.2744 26.668 23.9423 29.9141 21.622 31.9766C20.333 33.1016 19.2548 33.6758 18.3877 33.6992C16.2783 42.3477 14.0283 48.5234 11.6377 52.2266C10.2314 54.4062 8.6025 56.1055 6.75094 57.3242C4.87594 58.5664 3.42281 59.1875 2.39156 59.1875C1.33688 59.1875 0.750938 59.082 0.633751 58.8711C0.493126 58.6602 0.422813 58.4961 0.422813 58.3789C0.399376 58.2852 0.540001 58.2031 0.844688 58.1328C1.14938 58.0625 1.30172 58.0156 1.30172 57.9922C3.10641 57.5469 4.84078 56.3633 6.50484 54.4414C9.45797 50.8789 12.2236 43.9648 14.8017 33.6992L18.8447 17.2109C20.5322 10.2031 21.5752 6.23047 21.9736 5.29297C22.372 4.33203 22.8291 3.78125 23.3447 3.64062C23.3916 3.64062 23.415 3.62891 23.415 3.60547ZM44.9093 21.8867L44.839 22.3438L44.7687 22.7656C44.7687 23.3281 43.9484 25.5781 42.3078 29.5156C40.6437 33.4531 39.8234 36.2422 39.8468 37.8828C39.8937 40.6719 40.5734 42.0781 41.8859 42.1016C43.1984 42.1016 45.1203 40.6367 47.6515 37.707C50.6984 34.1914 52.5617 31.543 53.2414 29.7617C53.9211 28.0039 54.4484 27.125 54.8234 27.125C55.1281 27.1484 55.2922 27.4766 55.3156 28.1094C55.3156 28.7188 55.2453 29.1875 55.1047 29.5156L54.7531 30.4648C53.7453 33.043 52.1632 35.7266 50.007 38.5156C46.8898 42.6172 44.1125 44.668 41.675 44.668C40.9015 44.668 40.1984 44.4688 39.5656 44.0703C37.9718 43.0625 37.175 41.1641 37.175 38.375C37.175 37.4609 37.3742 36.0547 37.7726 34.1562C38.1945 32.2578 38.3937 31.2383 38.3703 31.0977C38.3703 30.9336 38.1593 30.7578 37.7375 30.5703C36.8937 30.1953 36.3312 30.1484 36.05 30.4297C35.8156 30.7578 34.7726 33.2891 32.9211 38.0234C31.0929 42.7578 29.839 45.125 29.1593 45.125C28.9484 45.125 28.55 44.9844 27.964 44.7031C27.3547 44.4219 27.05 44.0352 27.05 43.543C27.05 43.4492 27.3547 42.7344 27.964 41.3984L29.8976 36.9336C31.257 33.793 32.8507 29.6094 34.6789 24.3828L39.3547 11.1641C39.4718 10.8359 39.8468 10.6602 40.4797 10.6367L41.3937 10.6016C42.5187 10.6016 43.0812 11.0117 43.0812 11.832C43.0812 12.2305 42.4718 13.9883 41.2531 17.1055C40.0343 20.2227 39.2492 22.625 38.8976 24.3125L38.7922 25.3672C38.7922 25.6719 38.8507 25.8477 38.9679 25.8945C39.0382 25.8711 39.3312 25.3555 39.8468 24.3477L40.7609 22.5547C40.9015 22.3438 41.0422 22.0625 41.1828 21.7109C41.6984 20.75 42.3078 20.2695 43.0109 20.2695C44.2297 20.293 44.8625 20.7969 44.9093 21.7812V21.8867ZM60.9193 19.3203C59.7474 19.5078 58.2357 22.4375 56.3842 28.1094C54.5326 33.7812 53.6068 37.1328 53.6068 38.1641C53.6068 39.1953 53.7006 39.7109 53.8881 39.7109C54.8724 39.7109 56.4076 37.6016 58.4935 33.3828C60.5795 29.1406 61.6224 25.2617 61.6224 21.7461C61.6224 20.1523 61.3881 19.3438 60.9193 19.3203ZM60.3568 14.9609C61.0131 14.9609 61.5756 15.1484 62.0443 15.5234C62.8646 16.2266 63.2748 17.5859 63.2748 19.6016C63.2748 28.8125 61.6342 35.7148 58.3529 40.3086L57.8607 41.0469C55.8217 44 54.181 45.4766 52.9388 45.4766C51.4154 45.3125 50.5365 44.1992 50.3021 42.1367C50.3021 40.4258 50.9935 36.957 52.3763 31.7305C53.7826 26.5039 55.3881 21.9805 57.1927 18.1602C58.224 16.0508 59.2787 14.9844 60.3568 14.9609ZM87.1598 22.5195C86.8082 21.7227 86.3512 21.3242 85.7887 21.3242C85.6246 21.3242 85.4957 21.3477 85.4019 21.3945C83.3629 22.1914 80.5269 23.7969 76.8941 26.2109C73.2848 28.625 71.4215 30.3711 71.3043 31.4492C71.3277 31.6602 71.4683 31.7891 71.7262 31.8359C72.4293 31.8359 73.7652 31.2734 75.734 30.1484C77.7262 29 78.816 28.3789 79.0035 28.2852C79.191 28.2148 79.5191 28.0391 79.9879 27.7578L81.0074 27.1602C84.9215 24.9805 86.9723 23.4336 87.1598 22.5195ZM80.7262 34.543V34.4375C80.9137 33.2656 81.0074 32.6328 81.0074 32.5391C80.984 32.1641 80.6441 31.9766 79.9879 31.9766C79.3316 31.9531 78.6051 32.1172 77.8082 32.4688C77.0348 32.8203 75.3121 33.7578 72.6402 35.2812C69.9683 36.7812 67.7418 37.5312 65.9605 37.5312C65.398 37.5312 64.7066 37.2734 63.8863 36.7578C62.2926 35.7266 62.2574 34.2852 63.7808 32.4336C64.9527 31.0977 66.9332 29.3984 69.7223 27.3359L76.1207 22.5547C80.691 19.1797 83.691 17.5039 85.1207 17.5273C86.5504 17.5508 87.9566 18.3828 89.3394 20.0234C88.7535 20.3516 88.3668 21.1953 88.1793 22.5547C88.2027 22.5312 88.3433 22.5195 88.6012 22.5195C88.859 22.5195 89.1051 22.5898 89.3394 22.7305C89.5973 22.8477 89.7262 23.3867 89.7262 24.3477C89.7262 25.2852 89.6324 25.7656 89.4449 25.7891C89.1168 25.7891 88.4488 26.2461 87.441 27.1602C86.4332 28.0508 85.6832 28.8828 85.191 29.6562C84.7457 33.2891 83.9723 37.5547 82.8707 42.4531C80.5269 52.8359 78.0426 60.0781 75.4176 64.1797C74.6207 65.3984 73.648 66.582 72.4996 67.7305C69.9215 70.2148 67.5543 71.457 65.398 71.457C64.3668 71.457 63.8512 71.2109 63.8512 70.7188C63.8746 70.5312 64.2027 70.3555 64.8355 70.1914C65.4918 70.0508 66.2183 69.7461 67.0152 69.2773C68.6793 68.2695 70.0387 66.9219 71.0933 65.2344C73.0387 62.1406 74.7027 58.3555 76.0855 53.8789C77.4918 49.4023 79.0387 42.957 80.7262 34.543ZM103.24 21.8867L103.17 22.3438L103.099 22.7656C103.099 23.3281 102.279 25.5781 100.638 29.5156C98.9744 33.4531 98.1541 36.2422 98.1775 37.8828C98.2244 40.6719 98.9041 42.0781 100.217 42.1016C101.529 42.1016 103.451 40.6367 105.982 37.707C109.029 34.1914 110.892 31.543 111.572 29.7617C112.252 28.0039 112.779 27.125 113.154 27.125C113.459 27.1484 113.623 27.4766 113.646 28.1094C113.646 28.7188 113.576 29.1875 113.435 29.5156L113.084 30.4648C112.076 33.043 110.494 35.7266 108.338 38.5156C105.22 42.6172 102.443 44.668 100.006 44.668C99.2322 44.668 98.5291 44.4688 97.8963 44.0703C96.3025 43.0625 95.5057 41.1641 95.5057 38.375C95.5057 37.4609 95.7049 36.0547 96.1033 34.1562C96.5252 32.2578 96.7244 31.2383 96.701 31.0977C96.701 30.9336 96.49 30.7578 96.0682 30.5703C95.2244 30.1953 94.6619 30.1484 94.3807 30.4297C94.1463 30.7578 93.1033 33.2891 91.2517 38.0234C89.4236 42.7578 88.1697 45.125 87.49 45.125C87.2791 45.125 86.8807 44.9844 86.2947 44.7031C85.6853 44.4219 85.3807 44.0352 85.3807 43.543C85.3807 43.4492 85.6853 42.7344 86.2947 41.3984L88.2283 36.9336C89.5877 33.793 91.1814 29.6094 93.0096 24.3828L97.6853 11.1641C97.8025 10.8359 98.1775 10.6602 98.8103 10.6367L99.7244 10.6016C100.849 10.6016 101.412 11.0117 101.412 11.832C101.412 12.2305 100.803 13.9883 99.5838 17.1055C98.365 20.2227 97.5799 22.625 97.2283 24.3125L97.1228 25.3672C97.1228 25.6719 97.1814 25.8477 97.2986 25.8945C97.3689 25.8711 97.6619 25.3555 98.1775 24.3477L99.0916 22.5547C99.2322 22.3438 99.3728 22.0625 99.5135 21.7109C100.029 20.75 100.638 20.2695 101.342 20.2695C102.56 20.293 103.193 20.7969 103.24 21.7812V21.8867ZM116.895 26.7734C117.363 26.7031 118.371 25.6953 119.918 23.75C121.465 21.8047 122.238 20.2812 122.238 19.1797C122.238 19.0156 122.18 18.8281 122.062 18.6172C121.594 19.0859 120.609 20.4219 119.109 22.625C117.633 24.8281 116.895 26.2109 116.895 26.7734ZM130.887 32.0117C132.059 30.7461 132.715 30.5234 132.855 31.3438C132.855 31.6484 132.668 32.1523 132.293 32.8555C131.145 34.9883 129.387 37.25 127.02 39.6406C123.27 43.4375 119.953 45.3359 117.07 45.3359C115.711 45.3359 114.551 44.9492 113.59 44.1758C111.785 42.6992 110.883 40.1328 110.883 36.4766C110.883 34.3906 111.516 31.4609 112.781 27.6875C114.07 23.8906 116.039 20.457 118.688 17.3867C119.859 15.8867 121.078 15.1367 122.344 15.1367C122.953 15.1367 123.586 15.2656 124.242 15.5234C125.789 16.1562 126.562 17.1758 126.562 18.582C126.562 18.793 126.492 19.1328 126.352 19.6016C125.391 21.5 123.844 23.6914 121.711 26.1758C119.578 28.6602 117.41 30.6406 115.207 32.1172C114.457 34.8359 114.082 36.957 114.082 38.4805C114.082 40.0039 114.117 40.9766 114.188 41.3984C114.398 42.3828 115.184 42.875 116.543 42.875C117.902 42.875 119.473 42.2539 121.254 41.0117C123.035 39.7461 124.934 38.082 126.949 36.0195C128.965 33.957 130.102 32.7969 130.359 32.5391C130.641 32.2812 130.816 32.1055 130.887 32.0117ZM142.643 19.4258C142.643 22.8242 141.705 24.5703 139.83 24.6641C139.362 24.6641 138.916 24.5469 138.494 24.3125C138.682 28.4375 138.776 32.457 138.776 36.3711C138.776 40.2852 138.037 43.0625 136.561 44.7031C135.717 45.6406 134.627 46.1094 133.291 46.1094C131.979 46.1328 130.983 45.6758 130.303 44.7383C129.623 43.8242 129.283 42.9219 129.283 42.0312C129.33 40.9297 130.033 40.3672 131.393 40.3438C132.26 40.3438 132.635 40.9414 132.518 42.1367C132.401 43.332 132.682 43.9297 133.362 43.9297C134.627 43.9297 135.401 42.3242 135.682 39.1133C135.822 37.6367 135.881 35.5859 135.858 32.9609C135.858 30.3359 135.647 29.0117 135.225 28.9883C135.037 28.9883 134.78 29.3047 134.451 29.9375C134.123 30.5469 133.326 31.8125 132.061 33.7344C130.819 35.6562 129.74 37.0859 128.826 38.0234C127.912 38.9609 127.315 39.4766 127.033 39.5703C126.377 39.8047 126.002 39.5938 125.908 38.9375C125.932 38.2344 126.295 37.4141 126.998 36.4766C129.53 33.125 131.967 29.2578 134.311 24.875C134.85 23.8672 135.119 23.2812 135.119 23.1172V18.0547C135.119 17.0938 135.588 16.3555 136.526 15.8398C136.924 15.6289 137.299 15.5234 137.651 15.5234C139.104 15.5469 140.451 15.9805 141.694 16.8242C142.28 17.2461 142.584 17.7148 142.608 18.2305C142.631 18.7461 142.643 19.1445 142.643 19.4258ZM138.213 21.7812C139.01 21.6406 139.467 21.3711 139.584 20.9727C139.725 20.5508 139.795 20.1406 139.795 19.7422C139.795 19.3203 139.772 19.0039 139.725 18.793C139.022 18.793 138.541 19.2852 138.283 20.2695C138.19 20.5977 138.143 20.9023 138.143 21.1836C138.143 21.4648 138.166 21.6641 138.213 21.7812ZM156.719 19.4258C156.719 22.8242 155.782 24.5703 153.907 24.6641C153.438 24.6641 152.993 24.5469 152.571 24.3125C152.758 28.4375 152.852 32.457 152.852 36.3711C152.852 40.2852 152.114 43.0625 150.637 44.7031C149.793 45.6406 148.704 46.1094 147.368 46.1094C146.055 46.1328 145.059 45.6758 144.379 44.7383C143.7 43.8242 143.36 42.9219 143.36 42.0312C143.407 40.9297 144.11 40.3672 145.469 40.3438C146.336 40.3438 146.711 40.9414 146.594 42.1367C146.477 43.332 146.758 43.9297 147.438 43.9297C148.704 43.9297 149.477 42.3242 149.758 39.1133C149.899 37.6367 149.957 35.5859 149.934 32.9609C149.934 30.3359 149.723 29.0117 149.301 28.9883C149.114 28.9883 148.856 29.3047 148.528 29.9375C148.2 30.5469 147.403 31.8125 146.137 33.7344C144.895 35.6562 143.817 37.0859 142.903 38.0234C141.989 38.9609 141.391 39.4766 141.11 39.5703C140.454 39.8047 140.079 39.5938 139.985 38.9375C140.008 38.2344 140.371 37.4141 141.075 36.4766C143.606 33.125 146.043 29.2578 148.387 24.875C148.926 23.8672 149.196 23.2812 149.196 23.1172V18.0547C149.196 17.0938 149.664 16.3555 150.602 15.8398C151 15.6289 151.375 15.5234 151.727 15.5234C153.18 15.5469 154.528 15.9805 155.77 16.8242C156.356 17.2461 156.661 17.7148 156.684 18.2305C156.707 18.7461 156.719 19.1445 156.719 19.4258ZM152.289 21.7812C153.086 21.6406 153.543 21.3711 153.661 20.9727C153.801 20.5508 153.871 20.1406 153.871 19.7422C153.871 19.3203 153.848 19.0039 153.801 18.793C153.098 18.793 152.618 19.2852 152.36 20.2695C152.266 20.5977 152.219 20.9023 152.219 21.1836C152.219 21.4648 152.243 21.6641 152.289 21.7812ZM168.089 11.5859C167.971 11.5391 167.678 11.3516 167.21 11.0234C166.647 10.625 166.366 10.332 166.366 10.1445C166.366 9.51172 167.245 8.02344 169.003 5.67969C170.76 3.33594 171.756 1.92969 171.991 1.46094C172.577 0.875 173.385 1.16797 174.417 2.33984C175.237 3.32422 175.495 4.12109 175.19 4.73047C175.026 5.33984 174.03 6.62891 172.202 8.59766C170.374 10.5664 169.003 11.5625 168.089 11.5859ZM176.491 33.6641C175.624 36.1016 173.901 38.5859 171.323 41.1172C168.276 44.1172 165.721 45.6172 163.659 45.6172C160.87 45.6172 159.124 44.0352 158.421 40.8711C158.21 39.9102 158.104 38.8672 158.104 37.7422C158.081 34.1094 158.772 29.9023 160.178 25.1211C161.936 19.0742 163.6 16.0508 165.171 16.0508C165.944 16.0508 166.506 16.2383 166.858 16.6133C167.233 16.9648 167.421 17.2227 167.421 17.3867C167.421 18.1367 166.659 19.9883 165.135 22.9414C163.612 25.8711 162.663 28.0039 162.288 29.3398C161.936 30.6523 161.667 32.375 161.479 34.5078C161.315 36.6172 161.233 37.9766 161.233 38.5859C161.233 40.6484 161.479 41.9375 161.971 42.4531C162.487 42.9688 163.108 43.2383 163.835 43.2617C165.897 43.2617 168.358 41.4688 171.217 37.8828C172.6 36.125 173.678 34.5078 174.452 33.0312C174.803 32.4688 175.167 32.1875 175.542 32.1875C176.174 32.2812 176.526 32.5977 176.596 33.1367C176.596 33.207 176.561 33.3828 176.491 33.6641ZM200.2 30.8516C200.2 32.0234 198.864 34.1797 196.192 37.3203C193.52 40.4609 191.516 42.5352 190.181 43.543C188.868 44.5273 187.544 45.0195 186.208 45.0195C183.723 44.9961 182.481 43.0273 182.481 39.1133C182.481 37.2617 182.856 34.3672 183.606 30.4297C184.356 26.4688 184.755 24.3125 184.802 23.9609C182.317 24.7812 179.938 27.8984 177.665 33.3125C177.196 34.4609 176.446 36.418 175.415 39.1836C174.407 41.9258 173.692 43.5547 173.27 44.0703C172.755 44.6797 172.075 44.9844 171.231 44.9844C170.388 44.9844 169.954 44.6797 169.931 44.0703C169.931 42.9453 173.692 33.6172 181.216 16.0859C182.388 13.3203 183.067 11.7734 183.255 11.4453C183.653 10.6719 184.485 10.707 185.751 11.5508C186.126 11.8086 186.313 12.0664 186.313 12.3242C186.337 12.582 186.161 12.9922 185.786 13.5547C184.919 14.9141 184.145 16.4961 183.466 18.3008L182.13 21.7812L183.255 20.4102C184.263 19.168 185.071 18.2305 185.681 17.5977C186.29 16.9414 186.794 16.5781 187.192 16.5078C187.614 16.4141 188.048 16.3672 188.493 16.3672C189.454 16.4375 189.958 16.9531 190.005 17.9141C190.005 18.3828 189.841 19.0156 189.513 19.8125C188.036 23.2109 186.899 28.3555 186.102 35.2461C185.891 37.2148 185.786 38.9492 185.786 40.4492C185.809 41.9258 186.173 42.6758 186.876 42.6992C187.86 42.6992 189.653 41.1758 192.255 38.1289C194.856 35.0586 196.731 32.5156 197.88 30.5C198.184 30.0078 198.618 29.75 199.181 29.7266C199.766 29.8672 200.106 30.2422 200.2 30.8516ZM217.546 22.5195C217.194 21.7227 216.737 21.3242 216.175 21.3242C216.011 21.3242 215.882 21.3477 215.788 21.3945C213.749 22.1914 210.913 23.7969 207.28 26.2109C203.671 28.625 201.808 30.3711 201.69 31.4492C201.714 31.6602 201.855 31.7891 202.112 31.8359C202.815 31.8359 204.151 31.2734 206.12 30.1484C208.112 29 209.202 28.3789 209.39 28.2852C209.577 28.2148 209.905 28.0391 210.374 27.7578L211.394 27.1602C215.308 24.9805 217.358 23.4336 217.546 22.5195ZM211.112 34.543V34.4375C211.3 33.2656 211.394 32.6328 211.394 32.5391C211.37 32.1641 211.03 31.9766 210.374 31.9766C209.718 31.9531 208.991 32.1172 208.194 32.4688C207.421 32.8203 205.698 33.7578 203.026 35.2812C200.355 36.7812 198.128 37.5312 196.347 37.5312C195.784 37.5312 195.093 37.2734 194.272 36.7578C192.679 35.7266 192.644 34.2852 194.167 32.4336C195.339 31.0977 197.319 29.3984 200.108 27.3359L206.507 22.5547C211.077 19.1797 214.077 17.5039 215.507 17.5273C216.937 17.5508 218.343 18.3828 219.726 20.0234C219.14 20.3516 218.753 21.1953 218.565 22.5547C218.589 22.5312 218.73 22.5195 218.987 22.5195C219.245 22.5195 219.491 22.5898 219.726 22.7305C219.983 22.8477 220.112 23.3867 220.112 24.3477C220.112 25.2852 220.019 25.7656 219.831 25.7891C219.503 25.7891 218.835 26.2461 217.827 27.1602C216.819 28.0508 216.069 28.8828 215.577 29.6562C215.132 33.2891 214.358 37.5547 213.257 42.4531C210.913 52.8359 208.429 60.0781 205.804 64.1797C205.007 65.3984 204.034 66.582 202.886 67.7305C200.308 70.2148 197.94 71.457 195.784 71.457C194.753 71.457 194.237 71.2109 194.237 70.7188C194.261 70.5312 194.589 70.3555 195.222 70.1914C195.878 70.0508 196.605 69.7461 197.401 69.2773C199.065 68.2695 200.425 66.9219 201.48 65.2344C203.425 62.1406 205.089 58.3555 206.472 53.8789C207.878 49.4023 209.425 42.957 211.112 34.543Z" fill="white"/>
</g>
<defs>
<filter id="filter0_b_193_2786" x="-3.61237" y="-3.41797" width="227.725" height="78.875" filterUnits="userSpaceOnUse" color-interpolation-filters="sRGB">
<feFlood flood-opacity="0" result="BackgroundImageFix"/>
<feGaussianBlur in="BackgroundImageFix" stdDeviation="2"/>
<feComposite in2="SourceAlpha" operator="in" result="effect1_backgroundBlur_193_2786"/>
<feBlend mode="normal" in="SourceGraphic" in2="effect1_backgroundBlur_193_2786" result="shape"/>
</filter>
</defs>
</svg>
