<svg width="68" height="69" viewBox="0 0 68 69" fill="none" xmlns="http://www.w3.org/2000/svg">
<path d="M22.7219 26.592V41.456H24.8659V26.592H22.7219ZM16.8819 27.632C14.6419 27.632 12.9939 29.68 12.9939 32.912C12.9939 36.176 14.6419 38.224 16.8819 38.224C19.1219 38.224 20.7699 36.176 20.7699 32.912C20.7699 29.68 19.1219 27.632 16.8819 27.632ZM16.8819 29.568C17.9859 29.568 18.7219 30.736 18.7219 32.912C18.7219 35.12 17.9859 36.304 16.8819 36.304C15.7779 36.304 15.0259 35.12 15.0259 32.912C15.0259 30.736 15.7779 29.568 16.8819 29.568ZM30.2886 31.568V34.288H32.4166V31.568H30.2886ZM35.5046 31.568V34.288H37.6166V31.568H35.5046ZM27.2806 33.632V35.312H40.6726V33.632H27.2806ZM33.9526 36.064C30.7366 36.064 28.8006 37.024 28.8006 38.736C28.8006 40.464 30.7366 41.424 33.9526 41.424C37.1526 41.424 39.0886 40.464 39.0886 38.736C39.0886 37.024 37.1526 36.064 33.9526 36.064ZM33.9526 37.664C35.9366 37.664 36.9446 38 36.9446 38.736C36.9446 39.488 35.9366 39.824 33.9526 39.824C31.9686 39.824 30.9606 39.488 30.9606 38.736C30.9606 38 31.9686 37.664 33.9526 37.664ZM33.9846 26.816C30.7046 26.816 28.6246 27.904 28.6246 29.68C28.6246 31.44 30.7046 32.496 33.9846 32.496C37.2486 32.496 39.3446 31.44 39.3446 29.68C39.3446 27.904 37.2486 26.816 33.9846 26.816ZM33.9846 28.448C36.0166 28.448 37.1526 28.848 37.1526 29.68C37.1526 30.496 36.0166 30.896 33.9846 30.896C31.9526 30.896 30.8166 30.496 30.8166 29.68C30.8166 28.848 31.9526 28.448 33.9846 28.448ZM45.7914 33.52V36.848H47.9034V33.52H45.7914ZM52.4474 26.608V37.76H54.5914V26.608H52.4474ZM43.9194 39.472V41.168H54.9114V39.472H43.9194ZM43.9194 36.656V39.888H46.0474V36.656H43.9194ZM42.1594 33.888C44.8314 33.872 48.3514 33.792 51.5674 33.216L51.4234 31.712C48.2714 32.144 44.6074 32.192 41.9034 32.208L42.1594 33.888ZM49.5994 34.512V36.16H52.9274V34.512H49.5994ZM43.2474 27.344V29.024H49.5354V27.344H43.2474ZM48.1914 27.344V27.856C48.1914 28.688 48.1914 30.192 47.8394 32.384L49.9194 32.528C50.3034 30.32 50.3034 28.72 50.3034 27.856V27.344H48.1914Z" fill="white"/>
<path d="M66 31.4276C65.4375 31.4276 64.9167 31.503 64.4375 31.6536C63.9583 31.8043 63.5417 32.0077 63.1875 32.2639C62.8333 32.52 62.5417 32.8289 62.3125 33.1905C62.0833 33.5521 61.9792 33.9288 62 34.3206C62 34.7274 62.1042 35.1041 62.3125 35.4506C62.5208 35.7972 62.8021 36.0985 63.1562 36.3546C63.5104 36.6108 63.9375 36.8217 64.4375 36.9875C64.9375 37.1532 65.4583 37.2285 66 37.2135V48.7852H2V37.2135C2.5625 37.2135 3.08333 37.1381 3.5625 36.9875C4.04167 36.8368 4.45833 36.6334 4.8125 36.3772C5.16667 36.1211 5.45833 35.8122 5.6875 35.4506C5.91667 35.089 6.02083 34.7123 6 34.3206C6 33.9137 5.89583 33.5371 5.6875 33.1905C5.47917 32.844 5.19792 32.5426 4.84375 32.2865C4.48958 32.0303 4.0625 31.8194 3.5625 31.6536C3.0625 31.4879 2.54167 31.4126 2 31.4276V19.856H66V31.4276ZM62 22.7489H6V29.3031C7.25 29.8305 8.22917 30.5387 8.9375 31.4276C9.64583 32.3166 10 33.2809 10 34.3206C10 35.3602 9.64583 36.3245 8.9375 37.2135C8.22917 38.1024 7.25 38.8106 6 39.338V45.8922H62V39.338C60.75 38.8106 59.7708 38.1024 59.0625 37.2135C58.3542 36.3245 58 35.3602 58 34.3206C58 33.2809 58.3542 32.3166 59.0625 31.4276C59.7708 30.5387 60.75 29.8305 62 29.3031V22.7489Z" fill="#F8F8F8"/>
</svg>
