<svg width="103" height="36" viewBox="0 0 103 36" fill="none" xmlns="http://www.w3.org/2000/svg">
<rect x="0.5" y="0.5" width="102" height="35" rx="4.5" fill="#1E1E1E" stroke="#FFF8F8"/>
<g filter="url(#filter0_b_274_2741)">
<path d="M37.9302 14.6378C37.8734 14.0649 37.6296 13.6198 37.1987 13.3026C36.7678 12.9853 36.1831 12.8267 35.4444 12.8267C34.9425 12.8267 34.5188 12.8977 34.1731 13.0398C33.8275 13.1771 33.5623 13.3688 33.3777 13.6151C33.1977 13.8613 33.1078 14.1406 33.1078 14.4531C33.0983 14.7135 33.1528 14.9408 33.2711 15.1349C33.3942 15.3291 33.5623 15.4972 33.7754 15.6392C33.9885 15.7765 34.2347 15.8973 34.514 16.0014C34.7934 16.1009 35.0917 16.1861 35.4089 16.2571L36.7157 16.5696C37.3502 16.7116 37.9326 16.901 38.4629 17.1378C38.9932 17.3745 39.4525 17.6657 39.8407 18.0114C40.229 18.357 40.5297 18.7642 40.7427 19.233C40.9605 19.7017 41.0718 20.2391 41.0765 20.8452C41.0718 21.7353 40.8445 22.5071 40.3947 23.1605C39.9496 23.8092 39.3057 24.3134 38.4629 24.6733C37.6248 25.0284 36.6139 25.206 35.4302 25.206C34.256 25.206 33.2333 25.026 32.362 24.6662C31.4956 24.3063 30.8185 23.7737 30.3308 23.0682C29.8478 22.358 29.5945 21.4796 29.5708 20.4332H32.5467C32.5798 20.9209 32.7195 21.3281 32.9657 21.6548C33.2167 21.9768 33.5505 22.2206 33.9672 22.3864C34.3886 22.5473 34.8644 22.6278 35.3947 22.6278C35.9155 22.6278 36.3677 22.5521 36.7512 22.4006C37.1395 22.2491 37.4402 22.0384 37.6532 21.7685C37.8663 21.4986 37.9728 21.1884 37.9728 20.8381C37.9728 20.5114 37.8758 20.2367 37.6816 20.0142C37.4922 19.7917 37.2129 19.6023 36.8436 19.446C36.479 19.2898 36.0315 19.1477 35.5012 19.0199L33.9174 18.6222C32.6911 18.3239 31.7228 17.8575 31.0126 17.223C30.3024 16.5885 29.9496 15.7339 29.9544 14.6591C29.9496 13.7784 30.184 13.009 30.6575 12.3509C31.1357 11.6927 31.7915 11.179 32.6248 10.8097C33.4582 10.4403 34.4051 10.2557 35.4657 10.2557C36.5453 10.2557 37.4875 10.4403 38.2924 10.8097C39.1021 11.179 39.7318 11.6927 40.1816 12.3509C40.6315 13.009 40.8635 13.7713 40.8777 14.6378H37.9302ZM43.1451 25V10.4545H46.2203V16.8679H46.4121L51.6465 10.4545H55.3326L49.9348 16.9673L55.3965 25H51.7175L47.7331 19.0199L46.2203 20.8665V25H43.1451ZM60.0094 10.4545V25H56.9341V10.4545L60.0094 10.4545ZM62.5396 25V10.4545H68.2782C69.3815 10.4545 70.3213 10.6652 71.0978 11.0866C71.8743 11.5033 72.4662 12.0833 72.8734 12.8267C73.2853 13.5653 73.4913 14.4176 73.4913 15.3835C73.4913 16.3494 73.283 17.2017 72.8663 17.9403C72.4496 18.679 71.8459 19.2543 71.0552 19.6662C70.2692 20.0781 69.3175 20.2841 68.2001 20.2841H64.5424V17.8196H67.7029C68.2948 17.8196 68.7825 17.7178 69.166 17.5142C69.5543 17.3059 69.8431 17.0194 70.0325 16.6548C70.2266 16.2855 70.3237 15.8617 70.3237 15.3835C70.3237 14.9006 70.2266 14.4792 70.0325 14.1193C69.8431 13.7547 69.5543 13.473 69.166 13.2741C68.7778 13.0705 68.2853 12.9687 67.6887 12.9687H65.6149V25H62.5396Z" fill="#FFFAFA"/>
</g>
<defs>
<filter id="filter0_b_274_2741" x="25.5709" y="6.25562" width="51.9204" height="22.9504" filterUnits="userSpaceOnUse" color-interpolation-filters="sRGB">
<feFlood flood-opacity="0" result="BackgroundImageFix"/>
<feGaussianBlur in="BackgroundImageFix" stdDeviation="2"/>
<feComposite in2="SourceAlpha" operator="in" result="effect1_backgroundBlur_274_2741"/>
<feBlend mode="normal" in="SourceGraphic" in2="effect1_backgroundBlur_274_2741" result="shape"/>
</filter>
</defs>
</svg>
