<svg width="66" height="46" viewBox="0 0 66 46" fill="none" xmlns="http://www.w3.org/2000/svg">
<rect x="1" y="1" width="64" height="44" rx="9" stroke="#FF6464" stroke-width="2"/>
<path d="M12.668 32H16.9453L16.9453 23.2109C16.9453 22.4492 17.0771 21.8047 17.3408 21.2773C17.6045 20.75 17.9854 20.3496 18.4834 20.0762C18.9814 19.8027 19.582 19.666 20.2852 19.666C20.5977 19.666 20.8906 19.6904 21.1641 19.7393C21.4375 19.7783 21.6621 19.832 21.8379 19.9004V16.1357C21.6816 16.0869 21.4961 16.0479 21.2813 16.0186C21.0664 15.9893 20.8418 15.9746 20.6074 15.9746C19.6895 15.9746 18.9229 16.2432 18.3076 16.7803C17.6924 17.3174 17.2676 18.0693 17.0332 19.0361H16.9453V16.2969H12.668L12.668 32ZM30.2461 32.3223C31.3691 32.3223 32.3457 32.1758 33.1758 31.8828C34.0156 31.5898 34.7236 31.1992 35.2998 30.7109C35.8857 30.2227 36.3496 29.6855 36.6914 29.0996C37.0332 28.5137 37.2627 27.9326 37.3799 27.3564L37.4238 27.1953H33.498L33.4688 27.2832C33.3711 27.5762 33.1855 27.8643 32.9121 28.1475C32.6387 28.4307 32.2871 28.665 31.8574 28.8506C31.4277 29.0361 30.9199 29.1289 30.334 29.1289C29.5918 29.1289 28.9521 28.9678 28.415 28.6455C27.8779 28.3135 27.4629 27.8398 27.1699 27.2246C26.8867 26.6094 26.7451 25.8672 26.7451 24.998V23.3428C26.7451 22.4443 26.8867 21.6875 27.1699 21.0723C27.4629 20.4473 27.8633 19.9736 28.3711 19.6514C28.8887 19.3291 29.4795 19.168 30.1436 19.168C30.8076 19.168 31.3887 19.3242 31.8867 19.6367C32.3945 19.9492 32.79 20.418 33.0732 21.043C33.3564 21.6582 33.498 22.4248 33.498 23.3428V24.9834L35.5342 22.4639L24.6211 22.4639V25.1592L37.5557 25.1592V23.8408C37.5557 22.2588 37.248 20.877 36.6328 19.6953C36.0273 18.5137 35.1631 17.6006 34.04 16.9561C32.9268 16.3018 31.6035 15.9746 30.0703 15.9746C28.5371 15.9746 27.2041 16.3115 26.0713 16.9854C24.9482 17.6494 24.0742 18.5967 23.4492 19.8271C22.834 21.0479 22.5264 22.4932 22.5264 24.1631V24.1777C22.5264 25.8477 22.834 27.293 23.4492 28.5137C24.0742 29.7344 24.9629 30.6768 26.1152 31.3408C27.2676 31.9951 28.6445 32.3223 30.2461 32.3223ZM46.9453 32.3223C48.3418 32.3223 49.5576 32.0586 50.5928 31.5312C51.6377 30.9941 52.458 30.2715 53.0537 29.3633C53.6494 28.4551 53.9814 27.4297 54.0498 26.2871V26.1992H50.0654L50.0508 26.3311C49.9043 27.1221 49.5674 27.7617 49.04 28.25C48.5225 28.7285 47.834 28.9678 46.9746 28.9678C46.2715 28.9678 45.6611 28.7822 45.1436 28.4111C44.6357 28.0303 44.2402 27.4834 43.957 26.7705C43.6836 26.0479 43.5469 25.1738 43.5469 24.1484V24.1338C43.5469 23.1377 43.6836 22.2832 43.957 21.5703C44.2402 20.8477 44.6357 20.2959 45.1436 19.915C45.6611 19.5244 46.2666 19.3291 46.96 19.3291C47.8486 19.3291 48.5518 19.583 49.0693 20.0908C49.5869 20.5889 49.9092 21.2139 50.0361 21.9658L50.0654 22.0977H54.0352V21.9951C53.9766 20.8623 53.6494 19.8418 53.0537 18.9336C52.4678 18.0254 51.6523 17.3076 50.6074 16.7803C49.5625 16.2432 48.3271 15.9746 46.9014 15.9746C45.3389 15.9746 43.9766 16.3066 42.8145 16.9707C41.6621 17.625 40.7686 18.5625 40.1338 19.7832C39.5088 20.9941 39.1963 22.4395 39.1963 24.1191V24.1338C39.1963 25.8135 39.5088 27.2686 40.1338 28.499C40.7588 29.7197 41.6523 30.6621 42.8145 31.3262C43.9766 31.9902 45.3535 32.3223 46.9453 32.3223Z" fill="#FF6464"/>
</svg>
