<svg width="228" height="64" viewBox="0 0 228 64" fill="none" xmlns="http://www.w3.org/2000/svg">
<path d="M38.1143 45H30.9143V39.6L25.5143 45H6.61433C4.87433 45 3.37433 44.4 2.11433 43.2C0.914333 41.94 0.314333 40.44 0.314333 38.7V0.899999H7.51433V38.7H30.9143V0.899999H38.1143V45ZM83.5712 38.7C83.5712 40.44 82.9412 41.94 81.6812 43.2C80.4812 44.4 79.0112 45 77.2712 45H58.3712V63.9H52.0712V13.5H58.3712V18L62.8712 13.5H77.2712C79.0112 13.5 80.4812 14.13 81.6812 15.39C82.9412 16.59 83.5712 18.06 83.5712 19.8V38.7ZM77.2712 39.6V18.9H58.3712V44.1L62.8712 39.6H77.2712ZM121.434 13.5L115.944 18.9H100.734V26.1H113.334C115.074 26.1 116.544 26.73 117.744 27.99C119.004 29.19 119.634 30.66 119.634 32.4V38.7C119.634 40.44 119.004 41.94 117.744 43.2C116.544 44.4 115.074 45 113.334 45H94.4343V39.6H113.334V31.5H100.734C98.9943 31.5 97.4943 30.9 96.2343 29.7C95.0343 28.44 94.4343 26.94 94.4343 25.2V19.8C94.4343 18.06 95.0343 16.59 96.2343 15.39C97.4943 14.13 98.9943 13.5 100.734 13.5H121.434ZM136.745 8.1H130.445V0.899999H136.745V8.1ZM136.745 45H130.445V18L136.745 11.7V45ZM180.433 45H174.133V18.9H155.233V45H148.933V13.5H155.233V18L159.733 13.5H174.133C175.873 13.5 177.343 14.13 178.543 15.39C179.803 16.59 180.433 18.06 180.433 19.8V45ZM227.746 13.5L222.346 18.9H199.846V39.6H218.746V21.6H225.046V57.6C225.046 59.34 224.416 60.81 223.156 62.01C221.956 63.27 220.486 63.9 218.746 63.9H192.646L198.046 58.5H218.746V40.41L213.346 45H199.846C198.106 45 196.606 44.4 195.346 43.2C194.146 41.94 193.546 40.44 193.546 38.7V19.8C193.546 18.06 194.146 16.59 195.346 15.39C196.606 14.13 198.106 13.5 199.846 13.5H227.746Z" fill="url(#paint0_linear_193_2787)"/>
<defs>
<linearGradient id="paint0_linear_193_2787" x1="112" y1="10" x2="112" y2="32" gradientUnits="userSpaceOnUse">
<stop offset="0.515625" stop-color="#6F6F70"/>
<stop offset="1" stop-color="#6F6F70" stop-opacity="0.5"/>
</linearGradient>
</defs>
</svg>
