<svg width="116" height="72" viewBox="0 0 116 72" fill="none" xmlns="http://www.w3.org/2000/svg">
<g filter="url(#filter0_b_193_2786)">
<path d="M4.24656 38.9023C4.52781 38.8789 4.85594 38.668 5.23094 38.2695C8.98094 33.9336 12.9419 26.8672 17.1138 17.0703C17.3013 16.6484 18.1216 14.6797 19.5747 11.1641C21.0278 7.625 22.0005 5.71484 22.4927 5.43359C22.6333 5.36328 22.9614 5.32812 23.477 5.32812C23.9927 5.30469 24.3559 5.43359 24.5669 5.71484C24.7778 5.97266 24.8833 6.39453 24.8833 6.98047C24.8833 7.56641 24.6958 8.33984 24.3208 9.30078C21.977 15.1133 19.9497 21.3008 18.2388 27.8633C17.4184 31.1211 17.0083 34.1445 17.0083 36.9336C17.0083 39.7227 17.0552 41.3633 17.1489 41.8555C17.2427 42.3477 17.0903 42.8164 16.6919 43.2617C16.3169 43.707 15.977 44.0117 15.6723 44.1758C15.3911 44.3633 14.9927 44.3516 14.477 44.1406C13.9614 43.9531 13.5864 43.6016 13.352 43.0859C13.0942 42.5234 13.1059 40.918 13.3872 38.2695C13.6919 35.6211 14.102 33.1484 14.6177 30.8516L15.4966 27.0547C12.7778 33.0078 10.3755 37.4375 8.28953 40.3438C6.20359 43.25 4.17625 44.7148 2.2075 44.7383C0.98875 44.6914 0.379375 43.5664 0.379375 41.3633C0.379375 38.0586 1.37547 32.832 3.36766 25.6836C5.35984 18.5352 6.81297 13.7773 7.72703 11.4102C8.66453 9.01953 9.22703 7.53125 9.41453 6.94531C9.90672 5.60938 10.6567 4.95312 11.6645 4.97656C12.6723 4.97656 13.188 5.45703 13.2114 6.41797C13.2114 7.12109 12.9419 8.17578 12.4028 9.58203C7.97313 21.3945 5.25438 31.168 4.24656 38.9023ZM22.5768 41.1172C26.7487 36.6875 29.7604 31.8594 31.612 26.6328C32.3151 24.6641 32.7722 22.7656 32.9831 20.9375C32.4206 20.1641 31.5768 19.7773 30.4518 19.7773C29.3268 19.7773 28.5182 20.0469 28.0261 20.5859L26.3737 27.0195C24.8034 33.2539 23.5378 37.9531 22.5768 41.1172ZM15.0886 64.1445C13.6354 66.418 11.9597 68.1992 10.0612 69.4883C8.13934 70.8008 6.58075 71.457 5.38544 71.457C4.16669 71.457 3.55731 71.2109 3.55731 70.7188C3.55731 70.5078 3.83856 70.3438 4.40106 70.2266H4.47137C6.34637 69.8047 8.12762 68.5742 9.81512 66.5352C10.1901 66.0898 10.5065 65.6445 10.7643 65.1992C13.6003 60.6992 16.1315 53.8906 18.3581 44.7734L22.2956 28.1797C24.1003 20.4922 25.2136 16.1211 25.6354 15.0664C26.0573 14.0117 26.5261 13.4141 27.0417 13.2734C27.4636 13.1328 28.0026 13.0625 28.6589 13.0625C29.3151 13.0625 29.6901 13.25 29.7839 13.625C29.8073 13.7422 29.819 13.8828 29.819 14.0469C29.819 14.1875 29.7253 14.6094 29.5378 15.3125C29.3503 16.0156 29.2565 16.4844 29.2565 16.7188C29.5378 16.6719 29.9714 16.6484 30.5573 16.6484C33.112 16.6484 34.8347 17.3281 35.7253 18.6875C36.0768 19.25 36.2526 19.8828 36.2526 20.5859C36.2526 24.0078 35.0456 28.0273 32.6315 32.6445C30.2175 37.2617 27.8268 40.6719 25.4597 42.875C24.1003 44.1172 22.9636 44.75 22.0495 44.7734C19.8464 53.8672 17.5261 60.3242 15.0886 64.1445ZM38.4462 37.8125L38.2352 40.2383C38.2352 41.1523 38.5517 41.6328 39.1845 41.6797C41.1767 41.6797 42.6063 38.3516 43.4735 31.6953L46.954 4.87109C47.0243 4.40234 47.2001 3.93359 47.4813 3.46484C48.1845 2.33984 49.0985 1.77734 50.2235 1.77734C51.3485 1.77734 52.5087 2.22266 53.704 3.11328C54.8993 4.00391 55.497 5.1875 55.497 6.66406C55.497 8.11719 55.2157 9.62891 54.6532 11.1992C53.7392 13.707 52.579 14.9609 51.1727 14.9609C50.3993 14.9609 49.8368 14.7031 49.4852 14.1875L46.8837 31.8359C46.4384 34.6719 45.7938 37.1562 44.9501 39.2891C43.4032 43.0625 41.5048 44.9492 39.2548 44.9492C38.1767 44.9492 37.122 44.4922 36.0907 43.5781C35.0829 42.6406 34.579 41.1641 34.579 39.1484C34.579 37.1094 35.3524 36.0781 36.8993 36.0547C37.8837 36.0781 38.3993 36.6641 38.4462 37.8125ZM49.7665 10.5312C51.2665 10.3672 52.0517 9.01953 52.122 6.48828C51.6767 6.53516 51.1493 6.81641 50.5399 7.33203C49.954 7.82422 49.661 8.64453 49.661 9.79297C49.661 10.0508 49.6962 10.2969 49.7665 10.5312ZM63.0694 11.5859C62.9523 11.5391 62.6593 11.3516 62.1905 11.0234C61.628 10.625 61.3468 10.332 61.3468 10.1445C61.3468 9.51172 62.2257 8.02344 63.9835 5.67969C65.7413 3.33594 66.7374 1.92969 66.9718 1.46094C67.5577 0.875 68.3663 1.16797 69.3976 2.33984C70.2179 3.32422 70.4757 4.12109 70.171 4.73047C70.0069 5.33984 69.0108 6.62891 67.1827 8.59766C65.3546 10.5664 63.9835 11.5625 63.0694 11.5859ZM71.4718 33.6641C70.6046 36.1016 68.8819 38.5859 66.3038 41.1172C63.2569 44.1172 60.7023 45.6172 58.6398 45.6172C55.8507 45.6172 54.1046 44.0352 53.4015 40.8711C53.1905 39.9102 53.0851 38.8672 53.0851 37.7422C53.0616 34.1094 53.753 29.9023 55.1593 25.1211C56.9171 19.0742 58.5812 16.0508 60.1515 16.0508C60.9249 16.0508 61.4874 16.2383 61.839 16.6133C62.214 16.9648 62.4015 17.2227 62.4015 17.3867C62.4015 18.1367 61.6398 19.9883 60.1163 22.9414C58.5929 25.8711 57.6437 28.0039 57.2687 29.3398C56.9171 30.6523 56.6476 32.375 56.4601 34.5078C56.296 36.6172 56.214 37.9766 56.214 38.5859C56.214 40.6484 56.4601 41.9375 56.9523 42.4531C57.4679 42.9688 58.089 43.2383 58.8155 43.2617C60.878 43.2617 63.339 41.4688 66.1983 37.8828C67.5812 36.125 68.6593 34.5078 69.4327 33.0312C69.7843 32.4688 70.1476 32.1875 70.5226 32.1875C71.1554 32.2812 71.5069 32.5977 71.5773 33.1367C71.5773 33.207 71.5421 33.3828 71.4718 33.6641ZM95.181 30.8516C95.181 32.0234 93.845 34.1797 91.1732 37.3203C88.5013 40.4609 86.4974 42.5352 85.1614 43.543C83.8489 44.5273 82.5247 45.0195 81.1888 45.0195C78.7044 44.9961 77.4622 43.0273 77.4622 39.1133C77.4622 37.2617 77.8372 34.3672 78.5872 30.4297C79.3372 26.4688 79.7357 24.3125 79.7825 23.9609C77.2982 24.7812 74.9193 27.8984 72.6458 33.3125C72.1771 34.4609 71.4271 36.418 70.3958 39.1836C69.388 41.9258 68.6732 43.5547 68.2513 44.0703C67.7357 44.6797 67.056 44.9844 66.2122 44.9844C65.3685 44.9844 64.9349 44.6797 64.9114 44.0703C64.9114 42.9453 68.6732 33.6172 76.1966 16.0859C77.3685 13.3203 78.0482 11.7734 78.2357 11.4453C78.6341 10.6719 79.4661 10.707 80.7318 11.5508C81.1068 11.8086 81.2943 12.0664 81.2943 12.3242C81.3177 12.582 81.1419 12.9922 80.7669 13.5547C79.8997 14.9141 79.1263 16.4961 78.4466 18.3008L77.1107 21.7812L78.2357 20.4102C79.2435 19.168 80.0521 18.2305 80.6614 17.5977C81.2708 16.9414 81.7747 16.5781 82.1732 16.5078C82.595 16.4141 83.0286 16.3672 83.4739 16.3672C84.4349 16.4375 84.9388 16.9531 84.9857 17.9141C84.9857 18.3828 84.8216 19.0156 84.4935 19.8125C83.0169 23.2109 81.8802 28.3555 81.0833 35.2461C80.8724 37.2148 80.7669 38.9492 80.7669 40.4492C80.7903 41.9258 81.1536 42.6758 81.8568 42.6992C82.8411 42.6992 84.6341 41.1758 87.2357 38.1289C89.8372 35.0586 91.7122 32.5156 92.8607 30.5C93.1653 30.0078 93.5989 29.75 94.1614 29.7266C94.7474 29.8672 95.0872 30.2422 95.181 30.8516ZM112.527 22.5195C112.175 21.7227 111.718 21.3242 111.156 21.3242C110.992 21.3242 110.863 21.3477 110.769 21.3945C108.73 22.1914 105.894 23.7969 102.261 26.2109C98.6519 28.625 96.7886 30.3711 96.6714 31.4492C96.6948 31.6602 96.8355 31.7891 97.0933 31.8359C97.7964 31.8359 99.1323 31.2734 101.101 30.1484C103.093 29 104.183 28.3789 104.371 28.2852C104.558 28.2148 104.886 28.0391 105.355 27.7578L106.375 27.1602C110.289 24.9805 112.339 23.4336 112.527 22.5195ZM106.093 34.543V34.4375C106.281 33.2656 106.375 32.6328 106.375 32.5391C106.351 32.1641 106.011 31.9766 105.355 31.9766C104.699 31.9531 103.972 32.1172 103.175 32.4688C102.402 32.8203 100.679 33.7578 98.0073 35.2812C95.3355 36.7812 93.1089 37.5312 91.3277 37.5312C90.7652 37.5312 90.0737 37.2734 89.2534 36.7578C87.6597 35.7266 87.6245 34.2852 89.148 32.4336C90.3198 31.0977 92.3003 29.3984 95.0894 27.3359L101.488 22.5547C106.058 19.1797 109.058 17.5039 110.488 17.5273C111.917 17.5508 113.324 18.3828 114.707 20.0234C114.121 20.3516 113.734 21.1953 113.546 22.5547C113.57 22.5312 113.71 22.5195 113.968 22.5195C114.226 22.5195 114.472 22.5898 114.707 22.7305C114.964 22.8477 115.093 23.3867 115.093 24.3477C115.093 25.2852 115 25.7656 114.812 25.7891C114.484 25.7891 113.816 26.2461 112.808 27.1602C111.8 28.0508 111.05 28.8828 110.558 29.6562C110.113 33.2891 109.339 37.5547 108.238 42.4531C105.894 52.8359 103.41 60.0781 100.785 64.1797C99.9878 65.3984 99.0152 66.582 97.8667 67.7305C95.2886 70.2148 92.9214 71.457 90.7652 71.457C89.7339 71.457 89.2183 71.2109 89.2183 70.7188C89.2417 70.5312 89.5698 70.3555 90.2027 70.1914C90.8589 70.0508 91.5855 69.7461 92.3823 69.2773C94.0464 68.2695 95.4058 66.9219 96.4605 65.2344C98.4058 62.1406 100.07 58.3555 101.453 53.8789C102.859 49.4023 104.406 42.957 106.093 34.543Z" fill="white"/>
</g>
<defs>
<filter id="filter0_b_193_2786" x="-3.62061" y="-3.41797" width="122.714" height="78.875" filterUnits="userSpaceOnUse" color-interpolation-filters="sRGB">
<feFlood flood-opacity="0" result="BackgroundImageFix"/>
<feGaussianBlur in="BackgroundImageFix" stdDeviation="2"/>
<feComposite in2="SourceAlpha" operator="in" result="effect1_backgroundBlur_193_2786"/>
<feBlend mode="normal" in="SourceGraphic" in2="effect1_backgroundBlur_193_2786" result="shape"/>
</filter>
</defs>
</svg>
